<svg width="797" height="170" viewBox="0 0 797 170" fill="none" xmlns="http://www.w3.org/2000/svg">
<mask id="path-1-outside-1_1341_122833" maskUnits="userSpaceOnUse" x="-2.10435" y="-2.13666" width="173.869" height="173.934" fill="black">
<rect fill="white" x="-2.10435" y="-2.13666" width="173.869" height="173.934"/>
<path fill-rule="evenodd" clip-rule="evenodd" d="M120.673 120.082C120.636 120.121 120.597 120.162 120.553 120.198C120.525 120.232 120.497 120.262 120.471 120.289C118.656 122.122 116.146 123.279 113.387 123.301C112.706 123.308 112.045 123.244 111.401 123.121C109.434 122.736 107.67 121.775 106.296 120.415C104.471 118.608 103.331 116.105 103.328 113.35L103.304 103.105L113.546 103.012C116.303 102.988 118.815 104.098 120.643 105.907C122.017 107.267 122.997 109.022 123.403 110.985C123.533 111.627 123.606 112.289 123.606 112.968C123.614 115.723 122.492 118.244 120.673 120.082ZM55.5698 123.535C53.4741 123.297 51.5717 122.4 50.0779 121.061C51.6181 122.387 53.5271 123.287 55.5698 123.535ZM127.534 98.933C126.296 97.7115 124.896 96.6453 123.37 95.7845C120.462 94.1368 117.101 93.2093 113.526 93.2399L103.283 93.3322L103.674 80.0755L93.9047 80.162L93.5116 93.421L56.7414 93.7497C53.8629 93.7752 51.1277 94.4206 48.6552 95.5564L46.3428 96.8145C45.0405 97.635 43.8411 98.6015 42.7595 99.6937C39.1799 103.317 36.9632 108.284 36.9805 113.743C36.9869 119.1 39.1567 123.966 42.6408 127.506L42.6498 127.51C46.2276 130.956 51.1063 133.066 56.466 133.019C61.9189 132.97 66.8616 130.696 70.4435 127.076C71.5228 125.986 72.4755 124.775 73.2841 123.461C73.7421 122.714 74.1506 121.937 74.512 121.133C75.6214 118.648 76.2374 115.905 76.2292 113.028L75.9922 107.166L66.2226 107.252L66.4618 113.117C66.4654 115.872 65.3412 118.395 63.5219 120.228C63.1629 120.595 62.7745 120.934 62.3589 121.243C60.6987 122.484 58.6491 123.226 56.4409 123.247C53.7799 123.271 51.3487 122.235 49.5415 120.54L49.5369 120.536L49.5325 120.536L49.3491 120.356C47.5242 118.549 46.3847 116.05 46.379 113.298C46.8332 111.241 47.5392 109.346 48.6833 107.713C48.9858 107.296 49.3199 106.906 49.6833 106.539C51.5025 104.701 54.0034 103.544 56.7643 103.52L93.5345 103.191L93.558 113.44C93.5668 117.015 94.5323 120.37 96.2077 123.254C97.0924 124.773 98.1676 126.157 99.4039 127.381C102.372 130.314 106.263 132.318 110.599 132.9L113.615 132.871C119.014 132.823 123.92 130.592 127.492 127.032C131.014 123.419 133.19 118.486 133.178 113.085L133.169 110.055C132.535 105.727 130.496 101.865 127.534 98.933ZM49.0189 63.7595C47.6468 62.3973 46.6619 60.6429 46.2567 58.68C46.1263 58.0375 46.0533 57.3756 46.0531 56.6962C46.0472 53.9391 47.1738 51.4226 48.9863 49.5828C49.0233 49.5441 49.0669 49.503 49.1083 49.4642C49.1343 49.4324 49.1626 49.4028 49.1931 49.3753C51.0102 47.5399 53.5156 46.3877 56.2742 46.361C56.9534 46.3563 57.6161 46.4186 58.2579 46.5436C60.2277 46.9264 61.9916 47.8919 63.3637 49.2496C73.948 60.6559 58.878 73.7158 49.0189 63.7595ZM114.483 46.1796C116.423 46.4811 118.182 47.3468 119.584 48.6017C118.141 47.359 116.374 46.4957 114.483 46.1796ZM127.021 42.1567L127.012 42.1525C123.434 38.7065 118.555 36.5961 113.196 36.6475C107.743 36.6925 102.798 38.9685 99.218 42.5869C98.1387 43.6812 97.1861 44.892 96.3797 46.2033C95.9194 46.9482 95.5087 47.7273 95.1473 48.5316C94.0379 51.0165 93.4263 53.7591 93.4323 56.6339L93.6693 62.4968L103.439 62.4059L103.2 56.5453C103.194 53.7926 104.323 51.2694 106.14 49.434C106.496 49.0693 106.889 48.7303 107.303 48.424C108.963 47.1833 111.012 46.4361 113.221 46.4152C115.882 46.3911 118.313 47.4277 120.12 49.1224L120.125 49.1268L120.131 49.1288C120.19 49.1894 120.251 49.2477 120.312 49.3105C122.14 51.1157 123.277 53.6119 123.28 56.367C122.831 58.4236 122.12 60.3185 120.978 61.9495C120.678 62.3682 120.342 62.7568 119.978 63.1239C118.161 64.9638 115.656 66.1204 112.897 66.1427L76.127 66.4714L76.1036 56.2263C76.0948 52.6522 75.127 49.2945 73.4538 46.4085C72.5691 44.8934 71.4917 43.5079 70.2554 42.2842C67.2916 39.3502 63.3984 37.349 59.0673 36.767L56.0467 36.7918C50.6981 36.8407 45.8336 39.0279 42.2693 42.5305C42.2323 42.5648 42.1997 42.5989 42.1671 42.6331L42.0648 42.7357C38.6046 46.3376 36.473 51.2296 36.4859 56.5797L36.4903 59.5967C37.1222 63.9268 39.1657 67.7977 42.1273 70.7294C43.3635 71.9531 44.7653 73.0171 46.2919 73.8823C49.1969 75.5279 52.5604 76.4531 56.1358 76.4225L66.3781 76.3301L66.5075 89.6762L76.2748 89.5876L76.1477 76.2437L112.918 75.9149C115.799 75.8872 118.534 75.2462 121.004 74.1083L123.319 72.8524C124.623 72.0296 125.823 71.063 126.9 69.971C130.482 66.3503 132.698 61.3784 132.681 55.9196C132.675 50.5627 130.512 45.6982 127.021 42.1567Z"/>
</mask>
<path fill-rule="evenodd" clip-rule="evenodd" d="M120.673 120.082C120.636 120.121 120.597 120.162 120.553 120.198C120.525 120.232 120.497 120.262 120.471 120.289C118.656 122.122 116.146 123.279 113.387 123.301C112.706 123.308 112.045 123.244 111.401 123.121C109.434 122.736 107.67 121.775 106.296 120.415C104.471 118.608 103.331 116.105 103.328 113.35L103.304 103.105L113.546 103.012C116.303 102.988 118.815 104.098 120.643 105.907C122.017 107.267 122.997 109.022 123.403 110.985C123.533 111.627 123.606 112.289 123.606 112.968C123.614 115.723 122.492 118.244 120.673 120.082ZM55.5698 123.535C53.4741 123.297 51.5717 122.4 50.0779 121.061C51.6181 122.387 53.5271 123.287 55.5698 123.535ZM127.534 98.933C126.296 97.7115 124.896 96.6453 123.37 95.7845C120.462 94.1368 117.101 93.2093 113.526 93.2399L103.283 93.3322L103.674 80.0755L93.9047 80.162L93.5116 93.421L56.7414 93.7497C53.8629 93.7752 51.1277 94.4206 48.6552 95.5564L46.3428 96.8145C45.0405 97.635 43.8411 98.6015 42.7595 99.6937C39.1799 103.317 36.9632 108.284 36.9805 113.743C36.9869 119.1 39.1567 123.966 42.6408 127.506L42.6498 127.51C46.2276 130.956 51.1063 133.066 56.466 133.019C61.9189 132.97 66.8616 130.696 70.4435 127.076C71.5228 125.986 72.4755 124.775 73.2841 123.461C73.7421 122.714 74.1506 121.937 74.512 121.133C75.6214 118.648 76.2374 115.905 76.2292 113.028L75.9922 107.166L66.2226 107.252L66.4618 113.117C66.4654 115.872 65.3412 118.395 63.5219 120.228C63.1629 120.595 62.7745 120.934 62.3589 121.243C60.6987 122.484 58.6491 123.226 56.4409 123.247C53.7799 123.271 51.3487 122.235 49.5415 120.54L49.5369 120.536L49.5325 120.536L49.3491 120.356C47.5242 118.549 46.3847 116.05 46.379 113.298C46.8332 111.241 47.5392 109.346 48.6833 107.713C48.9858 107.296 49.3199 106.906 49.6833 106.539C51.5025 104.701 54.0034 103.544 56.7643 103.52L93.5345 103.191L93.558 113.44C93.5668 117.015 94.5323 120.37 96.2077 123.254C97.0924 124.773 98.1676 126.157 99.4039 127.381C102.372 130.314 106.263 132.318 110.599 132.9L113.615 132.871C119.014 132.823 123.92 130.592 127.492 127.032C131.014 123.419 133.19 118.486 133.178 113.085L133.169 110.055C132.535 105.727 130.496 101.865 127.534 98.933ZM49.0189 63.7595C47.6468 62.3973 46.6619 60.6429 46.2567 58.68C46.1263 58.0375 46.0533 57.3756 46.0531 56.6962C46.0472 53.9391 47.1738 51.4226 48.9863 49.5828C49.0233 49.5441 49.0669 49.503 49.1083 49.4642C49.1343 49.4324 49.1626 49.4028 49.1931 49.3753C51.0102 47.5399 53.5156 46.3877 56.2742 46.361C56.9534 46.3563 57.6161 46.4186 58.2579 46.5436C60.2277 46.9264 61.9916 47.8919 63.3637 49.2496C73.948 60.6559 58.878 73.7158 49.0189 63.7595ZM114.483 46.1796C116.423 46.4811 118.182 47.3468 119.584 48.6017C118.141 47.359 116.374 46.4957 114.483 46.1796ZM127.021 42.1567L127.012 42.1525C123.434 38.7065 118.555 36.5961 113.196 36.6475C107.743 36.6925 102.798 38.9685 99.218 42.5869C98.1387 43.6812 97.1861 44.892 96.3797 46.2033C95.9194 46.9482 95.5087 47.7273 95.1473 48.5316C94.0379 51.0165 93.4263 53.7591 93.4323 56.6339L93.6693 62.4968L103.439 62.4059L103.2 56.5453C103.194 53.7926 104.323 51.2694 106.14 49.434C106.496 49.0693 106.889 48.7303 107.303 48.424C108.963 47.1833 111.012 46.4361 113.221 46.4152C115.882 46.3911 118.313 47.4277 120.12 49.1224L120.125 49.1268L120.131 49.1288C120.19 49.1894 120.251 49.2477 120.312 49.3105C122.14 51.1157 123.277 53.6119 123.28 56.367C122.831 58.4236 122.12 60.3185 120.978 61.9495C120.678 62.3682 120.342 62.7568 119.978 63.1239C118.161 64.9638 115.656 66.1204 112.897 66.1427L76.127 66.4714L76.1036 56.2263C76.0948 52.6522 75.127 49.2945 73.4538 46.4085C72.5691 44.8934 71.4917 43.5079 70.2554 42.2842C67.2916 39.3502 63.3984 37.349 59.0673 36.767L56.0467 36.7918C50.6981 36.8407 45.8336 39.0279 42.2693 42.5305C42.2323 42.5648 42.1997 42.5989 42.1671 42.6331L42.0648 42.7357C38.6046 46.3376 36.473 51.2296 36.4859 56.5797L36.4903 59.5967C37.1222 63.9268 39.1657 67.7977 42.1273 70.7294C43.3635 71.9531 44.7653 73.0171 46.2919 73.8823C49.1969 75.5279 52.5604 76.4531 56.1358 76.4225L66.3781 76.3301L66.5075 89.6762L76.2748 89.5876L76.1477 76.2437L112.918 75.9149C115.799 75.8872 118.534 75.2462 121.004 74.1083L123.319 72.8524C124.623 72.0296 125.823 71.063 126.9 69.971C130.482 66.3503 132.698 61.3784 132.681 55.9196C132.675 50.5627 130.512 45.6982 127.021 42.1567Z" fill="#DE7B76"/>
<path fill-rule="evenodd" clip-rule="evenodd" d="M120.673 120.082C120.636 120.121 120.597 120.162 120.553 120.198C120.525 120.232 120.497 120.262 120.471 120.289C118.656 122.122 116.146 123.279 113.387 123.301C112.706 123.308 112.045 123.244 111.401 123.121C109.434 122.736 107.67 121.775 106.296 120.415C104.471 118.608 103.331 116.105 103.328 113.35L103.304 103.105L113.546 103.012C116.303 102.988 118.815 104.098 120.643 105.907C122.017 107.267 122.997 109.022 123.403 110.985C123.533 111.627 123.606 112.289 123.606 112.968C123.614 115.723 122.492 118.244 120.673 120.082ZM55.5698 123.535C53.4741 123.297 51.5717 122.4 50.0779 121.061C51.6181 122.387 53.5271 123.287 55.5698 123.535ZM127.534 98.933C126.296 97.7115 124.896 96.6453 123.37 95.7845C120.462 94.1368 117.101 93.2093 113.526 93.2399L103.283 93.3322L103.674 80.0755L93.9047 80.162L93.5116 93.421L56.7414 93.7497C53.8629 93.7752 51.1277 94.4206 48.6552 95.5564L46.3428 96.8145C45.0405 97.635 43.8411 98.6015 42.7595 99.6937C39.1799 103.317 36.9632 108.284 36.9805 113.743C36.9869 119.1 39.1567 123.966 42.6408 127.506L42.6498 127.51C46.2276 130.956 51.1063 133.066 56.466 133.019C61.9189 132.97 66.8616 130.696 70.4435 127.076C71.5228 125.986 72.4755 124.775 73.2841 123.461C73.7421 122.714 74.1506 121.937 74.512 121.133C75.6214 118.648 76.2374 115.905 76.2292 113.028L75.9922 107.166L66.2226 107.252L66.4618 113.117C66.4654 115.872 65.3412 118.395 63.5219 120.228C63.1629 120.595 62.7745 120.934 62.3589 121.243C60.6987 122.484 58.6491 123.226 56.4409 123.247C53.7799 123.271 51.3487 122.235 49.5415 120.54L49.5369 120.536L49.5325 120.536L49.3491 120.356C47.5242 118.549 46.3847 116.05 46.379 113.298C46.8332 111.241 47.5392 109.346 48.6833 107.713C48.9858 107.296 49.3199 106.906 49.6833 106.539C51.5025 104.701 54.0034 103.544 56.7643 103.52L93.5345 103.191L93.558 113.44C93.5668 117.015 94.5323 120.37 96.2077 123.254C97.0924 124.773 98.1676 126.157 99.4039 127.381C102.372 130.314 106.263 132.318 110.599 132.9L113.615 132.871C119.014 132.823 123.92 130.592 127.492 127.032C131.014 123.419 133.19 118.486 133.178 113.085L133.169 110.055C132.535 105.727 130.496 101.865 127.534 98.933ZM49.0189 63.7595C47.6468 62.3973 46.6619 60.6429 46.2567 58.68C46.1263 58.0375 46.0533 57.3756 46.0531 56.6962C46.0472 53.9391 47.1738 51.4226 48.9863 49.5828C49.0233 49.5441 49.0669 49.503 49.1083 49.4642C49.1343 49.4324 49.1626 49.4028 49.1931 49.3753C51.0102 47.5399 53.5156 46.3877 56.2742 46.361C56.9534 46.3563 57.6161 46.4186 58.2579 46.5436C60.2277 46.9264 61.9916 47.8919 63.3637 49.2496C73.948 60.6559 58.878 73.7158 49.0189 63.7595ZM114.483 46.1796C116.423 46.4811 118.182 47.3468 119.584 48.6017C118.141 47.359 116.374 46.4957 114.483 46.1796ZM127.021 42.1567L127.012 42.1525C123.434 38.7065 118.555 36.5961 113.196 36.6475C107.743 36.6925 102.798 38.9685 99.218 42.5869C98.1387 43.6812 97.1861 44.892 96.3797 46.2033C95.9194 46.9482 95.5087 47.7273 95.1473 48.5316C94.0379 51.0165 93.4263 53.7591 93.4323 56.6339L93.6693 62.4968L103.439 62.4059L103.2 56.5453C103.194 53.7926 104.323 51.2694 106.14 49.434C106.496 49.0693 106.889 48.7303 107.303 48.424C108.963 47.1833 111.012 46.4361 113.221 46.4152C115.882 46.3911 118.313 47.4277 120.12 49.1224L120.125 49.1268L120.131 49.1288C120.19 49.1894 120.251 49.2477 120.312 49.3105C122.14 51.1157 123.277 53.6119 123.28 56.367C122.831 58.4236 122.12 60.3185 120.978 61.9495C120.678 62.3682 120.342 62.7568 119.978 63.1239C118.161 64.9638 115.656 66.1204 112.897 66.1427L76.127 66.4714L76.1036 56.2263C76.0948 52.6522 75.127 49.2945 73.4538 46.4085C72.5691 44.8934 71.4917 43.5079 70.2554 42.2842C67.2916 39.3502 63.3984 37.349 59.0673 36.767L56.0467 36.7918C50.6981 36.8407 45.8336 39.0279 42.2693 42.5305C42.2323 42.5648 42.1997 42.5989 42.1671 42.6331L42.0648 42.7357C38.6046 46.3376 36.473 51.2296 36.4859 56.5797L36.4903 59.5967C37.1222 63.9268 39.1657 67.7977 42.1273 70.7294C43.3635 71.9531 44.7653 73.0171 46.2919 73.8823C49.1969 75.5279 52.5604 76.4531 56.1358 76.4225L66.3781 76.3301L66.5075 89.6762L76.2748 89.5876L76.1477 76.2437L112.918 75.9149C115.799 75.8872 118.534 75.2462 121.004 74.1083L123.319 72.8524C124.623 72.0296 125.823 71.063 126.9 69.971C130.482 66.3503 132.698 61.3784 132.681 55.9196C132.675 50.5627 130.512 45.6982 127.021 42.1567Z" stroke="#DE7B76" stroke-width="2" mask="url(#path-1-outside-1_1341_122833)"/>
<path d="M204.471 67.0469C204.133 63.8835 202.708 61.4205 200.197 59.6577C197.71 57.8949 194.474 57.0135 190.49 57.0135C187.689 57.0135 185.286 57.4361 183.282 58.2812C181.277 59.1264 179.744 60.2734 178.681 61.7223C177.619 63.1712 177.076 64.8253 177.051 66.6847C177.051 68.2301 177.402 69.5703 178.102 70.7053C178.826 71.8402 179.804 72.8061 181.036 73.603C182.267 74.3757 183.632 75.0277 185.129 75.5589C186.626 76.0902 188.135 76.5369 189.657 76.8991L196.611 78.6378C199.412 79.2898 202.105 80.1712 204.689 81.282C207.297 82.3928 209.627 83.7933 211.679 85.4837C213.756 87.174 215.398 89.2145 216.605 91.6051C217.813 93.9957 218.417 96.7969 218.417 100.009C218.417 104.355 217.306 108.183 215.084 111.491C212.863 114.775 209.651 117.347 205.449 119.206C201.272 121.041 196.213 121.959 190.272 121.959C184.501 121.959 179.49 121.065 175.24 119.278C171.015 117.491 167.706 114.884 165.316 111.455C162.949 108.026 161.669 103.848 161.476 98.9219H174.697C174.89 101.506 175.687 103.655 177.088 105.369C178.488 107.084 180.311 108.364 182.557 109.209C184.827 110.054 187.363 110.477 190.164 110.477C193.086 110.477 195.645 110.042 197.843 109.173C200.064 108.279 201.803 107.048 203.059 105.478C204.314 103.884 204.954 102.025 204.978 99.8999C204.954 97.968 204.387 96.3743 203.276 95.1186C202.165 93.8388 200.608 92.7763 198.603 91.9311C196.623 91.0618 194.305 90.2891 191.649 89.6129L183.209 87.4396C177.1 85.87 172.27 83.4915 168.721 80.304C165.195 77.0923 163.432 72.8303 163.432 67.5178C163.432 63.147 164.615 59.3196 166.982 56.0355C169.373 52.7514 172.62 50.2038 176.725 48.3928C180.831 46.5575 185.479 45.6399 190.671 45.6399C195.935 45.6399 200.547 46.5575 204.507 48.3928C208.492 50.2038 211.619 52.7273 213.889 55.9631C216.159 59.1747 217.33 62.8693 217.402 67.0469H204.471ZM259.158 97.4368V65.1996H272.27V120.836H259.557V110.947H258.977C257.721 114.062 255.657 116.61 252.783 118.59C249.934 120.57 246.42 121.56 242.243 121.56C238.596 121.56 235.373 120.751 232.572 119.134C229.795 117.491 227.621 115.113 226.052 111.998C224.482 108.859 223.697 105.067 223.697 100.624V65.1996H236.81V98.5959C236.81 102.121 237.775 104.923 239.707 106.999C241.639 109.076 244.175 110.114 247.314 110.114C249.246 110.114 251.117 109.643 252.928 108.702C254.739 107.76 256.224 106.359 257.383 104.5C258.567 102.616 259.158 100.262 259.158 97.4368ZM279.634 141.7V65.1996H292.529V74.3999H293.289C293.966 73.0476 294.919 71.6108 296.151 70.0895C297.383 68.544 299.049 67.228 301.15 66.1413C303.25 65.0305 305.931 64.4751 309.191 64.4751C313.489 64.4751 317.365 65.5739 320.818 67.7713C324.295 69.9446 327.048 73.1683 329.076 77.4425C331.129 81.6925 332.155 86.9084 332.155 93.0902C332.155 99.1996 331.153 104.391 329.149 108.665C327.145 112.94 324.416 116.2 320.963 118.445C317.51 120.691 313.598 121.814 309.227 121.814C306.039 121.814 303.395 121.283 301.294 120.22C299.194 119.158 297.503 117.878 296.223 116.381C294.968 114.859 293.99 113.423 293.289 112.07H292.746V141.7H279.634ZM292.493 93.0178C292.493 96.6158 293 99.767 294.014 102.472C295.052 105.176 296.537 107.289 298.469 108.81C300.425 110.308 302.792 111.056 305.569 111.056C308.466 111.056 310.893 110.283 312.849 108.738C314.805 107.168 316.278 105.031 317.268 102.327C318.282 99.598 318.789 96.495 318.789 93.0178C318.789 89.5646 318.294 86.4979 317.304 83.8175C316.314 81.1371 314.841 79.0362 312.885 77.5149C310.929 75.9936 308.49 75.233 305.569 75.233C302.767 75.233 300.389 75.9695 298.433 77.4425C296.477 78.9155 294.992 80.9801 293.978 83.6364C292.988 86.2926 292.493 89.4197 292.493 93.0178ZM361.895 121.923C356.316 121.923 351.499 120.763 347.442 118.445C343.41 116.103 340.307 112.795 338.133 108.521C335.96 104.222 334.873 99.1634 334.873 93.3438C334.873 87.6207 335.96 82.598 338.133 78.2756C340.331 73.929 343.397 70.5483 347.334 68.1335C351.27 65.6946 355.894 64.4751 361.206 64.4751C364.635 64.4751 367.871 65.0305 370.914 66.1413C373.981 67.228 376.685 68.9183 379.027 71.2124C381.394 73.5064 383.253 76.4283 384.606 79.978C385.958 83.5036 386.634 87.7053 386.634 92.5831V96.6037H341.031V87.7656H374.065C374.041 85.2543 373.498 83.0206 372.435 81.0646C371.373 79.0845 369.888 77.527 367.98 76.392C366.096 75.2571 363.899 74.6896 361.388 74.6896C358.707 74.6896 356.353 75.3416 354.324 76.6456C352.296 77.9254 350.714 79.6158 349.579 81.7166C348.468 83.7933 347.901 86.0753 347.877 88.5625V96.2777C347.877 99.5135 348.468 102.29 349.652 104.609C350.835 106.903 352.489 108.665 354.614 109.897C356.739 111.104 359.226 111.708 362.076 111.708C363.983 111.708 365.71 111.442 367.255 110.911C368.801 110.356 370.141 109.547 371.276 108.484C372.411 107.422 373.268 106.106 373.848 104.536L386.091 105.913C385.318 109.148 383.845 111.974 381.672 114.388C379.522 116.779 376.77 118.638 373.413 119.967C370.057 121.271 366.217 121.923 361.895 121.923ZM391.607 120.836V65.1996H404.321V74.4723H404.9C405.914 71.2607 407.653 68.7855 410.116 67.0469C412.603 65.2841 415.441 64.4027 418.628 64.4027C419.353 64.4027 420.162 64.4389 421.055 64.5114C421.973 64.5597 422.733 64.6442 423.337 64.7649V76.8267C422.782 76.6335 421.9 76.4645 420.693 76.3196C419.51 76.1506 418.363 76.066 417.252 76.066C414.861 76.066 412.712 76.5852 410.804 77.6236C408.921 78.6378 407.436 80.0504 406.349 81.8615C405.262 83.6726 404.719 85.7614 404.719 88.1278V120.836H391.607ZM439.04 88.2365V120.836H425.928V65.1996H438.461V74.6534H439.113C440.393 71.5384 442.433 69.0632 445.234 67.228C448.06 65.3928 451.549 64.4751 455.702 64.4751C459.542 64.4751 462.886 65.2962 465.736 66.9382C468.609 68.5803 470.831 70.9588 472.401 74.0739C473.994 77.1889 474.779 80.968 474.755 85.4112V120.836H461.643V87.4396C461.643 83.7209 460.677 80.8111 458.745 78.7102C456.837 76.6094 454.193 75.5589 450.812 75.5589C448.518 75.5589 446.478 76.066 444.691 77.0803C442.928 78.0703 441.54 79.5071 440.526 81.3906C439.535 83.2741 439.04 85.5561 439.04 88.2365ZM506.233 121.923C500.8 121.923 496.091 120.727 492.107 118.337C488.122 115.946 485.031 112.602 482.834 108.303C480.661 104.005 479.574 98.9822 479.574 93.2351C479.574 87.4879 480.661 82.4531 482.834 78.1307C485.031 73.8082 488.122 70.4517 492.107 68.0611C496.091 65.6705 500.8 64.4751 506.233 64.4751C511.666 64.4751 516.375 65.6705 520.359 68.0611C524.344 70.4517 527.423 73.8082 529.596 78.1307C531.793 82.4531 532.892 87.4879 532.892 93.2351C532.892 98.9822 531.793 104.005 529.596 108.303C527.423 112.602 524.344 115.946 520.359 118.337C516.375 120.727 511.666 121.923 506.233 121.923ZM506.305 111.418C509.251 111.418 511.714 110.609 513.695 108.991C515.675 107.349 517.148 105.152 518.114 102.399C519.104 99.6463 519.599 96.5795 519.599 93.1989C519.599 89.794 519.104 86.7152 518.114 83.9624C517.148 81.1854 515.675 78.9759 513.695 77.3338C511.714 75.6918 509.251 74.8707 506.305 74.8707C503.287 74.8707 500.776 75.6918 498.771 77.3338C496.791 78.9759 495.306 81.1854 494.316 83.9624C493.35 86.7152 492.867 89.794 492.867 93.1989C492.867 96.5795 493.35 99.6463 494.316 102.399C495.306 105.152 496.791 107.349 498.771 108.991C500.776 110.609 503.287 111.418 506.305 111.418ZM558.547 121.814C554.177 121.814 550.265 120.691 546.812 118.445C543.359 116.2 540.63 112.94 538.626 108.665C536.621 104.391 535.619 99.1996 535.619 93.0902C535.619 86.9084 536.633 81.6925 538.662 77.4425C540.714 73.1683 543.479 69.9446 546.957 67.7713C550.434 65.5739 554.31 64.4751 558.584 64.4751C561.844 64.4751 564.524 65.0305 566.625 66.1413C568.726 67.228 570.392 68.544 571.623 70.0895C572.855 71.6108 573.809 73.0476 574.485 74.3999H575.028V46.6541H588.177V120.836H575.282V112.07H574.485C573.809 113.423 572.831 114.859 571.551 116.381C570.271 117.878 568.581 119.158 566.48 120.22C564.379 121.283 561.735 121.814 558.547 121.814ZM562.206 111.056C564.983 111.056 567.349 110.308 569.305 108.81C571.261 107.289 572.746 105.176 573.761 102.472C574.775 99.767 575.282 96.6158 575.282 93.0178C575.282 89.4197 574.775 86.2926 573.761 83.6364C572.77 80.9801 571.297 78.9155 569.341 77.4425C567.41 75.9695 565.031 75.233 562.206 75.233C559.284 75.233 556.845 75.9936 554.889 77.5149C552.933 79.0362 551.46 81.1371 550.47 83.8175C549.48 86.4979 548.985 89.5646 548.985 93.0178C548.985 96.495 549.48 99.598 550.47 102.327C551.484 105.031 552.969 107.168 554.925 108.738C556.905 110.283 559.332 111.056 562.206 111.056ZM620.66 121.923C615.082 121.923 610.264 120.763 606.207 118.445C602.175 116.103 599.072 112.795 596.898 108.521C594.725 104.222 593.639 99.1634 593.639 93.3438C593.639 87.6207 594.725 82.598 596.898 78.2756C599.096 73.929 602.163 70.5483 606.099 68.1335C610.035 65.6946 614.659 64.4751 619.972 64.4751C623.401 64.4751 626.636 65.0305 629.679 66.1413C632.746 67.228 635.45 68.9183 637.793 71.2124C640.159 73.5064 642.019 76.4283 643.371 79.978C644.723 83.5036 645.399 87.7053 645.399 92.5831V96.6037H599.796V87.7656H632.83C632.806 85.2543 632.263 83.0206 631.2 81.0646C630.138 79.0845 628.653 77.527 626.745 76.392C624.862 75.2571 622.664 74.6896 620.153 74.6896C617.472 74.6896 615.118 75.3416 613.09 76.6456C611.061 77.9254 609.479 79.6158 608.345 81.7166C607.234 83.7933 606.666 86.0753 606.642 88.5625V96.2777C606.642 99.5135 607.234 102.29 608.417 104.609C609.6 106.903 611.254 108.665 613.379 109.897C615.504 111.104 617.992 111.708 620.841 111.708C622.749 111.708 624.475 111.442 626.021 110.911C627.566 110.356 628.906 109.547 630.041 108.484C631.176 107.422 632.033 106.106 632.613 104.536L644.856 105.913C644.083 109.148 642.61 111.974 640.437 114.388C638.288 116.779 635.535 118.638 632.178 119.967C628.822 121.271 624.982 121.923 620.66 121.923ZM694.345 79.9055L682.392 81.2095C682.054 80.0021 681.462 78.8672 680.617 77.8047C679.796 76.7422 678.685 75.8849 677.285 75.233C675.884 74.581 674.17 74.255 672.141 74.255C669.413 74.255 667.119 74.8466 665.259 76.0298C663.424 77.2131 662.518 78.7464 662.543 80.63C662.518 82.2479 663.11 83.5639 664.317 84.5781C665.549 85.5923 667.577 86.4254 670.403 87.0774L679.893 89.1058C685.157 90.2408 689.069 92.0398 691.628 94.5028C694.212 96.9659 695.516 100.19 695.54 104.174C695.516 107.675 694.49 110.766 692.462 113.447C690.457 116.103 687.668 118.18 684.094 119.677C680.521 121.174 676.415 121.923 671.779 121.923C664.969 121.923 659.488 120.498 655.334 117.648C651.181 114.775 648.706 110.778 647.909 105.659L660.695 104.428C661.275 106.939 662.506 108.835 664.39 110.114C666.273 111.394 668.724 112.034 671.743 112.034C674.858 112.034 677.357 111.394 679.241 110.114C681.148 108.835 682.102 107.253 682.102 105.369C682.102 103.776 681.486 102.46 680.255 101.421C679.048 100.383 677.164 99.5859 674.604 99.0305L665.114 97.0384C659.778 95.9276 655.829 94.0561 653.27 91.424C650.71 88.7678 649.442 85.4112 649.467 81.3544C649.442 77.9254 650.372 74.9553 652.256 72.4439C654.163 69.9084 656.807 67.9524 660.188 66.576C663.593 65.1754 667.517 64.4751 671.96 64.4751C678.48 64.4751 683.611 65.8636 687.354 68.6406C691.121 71.4176 693.452 75.1726 694.345 79.9055Z" fill="black"/>
</svg>
