<svg width="170" height="170" viewBox="24 24 122 122" fill="none" xmlns="http://www.w3.org/2000/svg">
<path fill-rule="evenodd" clip-rule="evenodd" d="M120.673 120.082C120.636 120.121 120.597 120.162 120.553 120.198C120.525 120.232 120.497 120.262 120.471 120.289C118.656 122.122 116.146 123.279 113.387 123.301C112.706 123.308 112.045 123.244 111.401 123.121C109.434 122.736 107.67 121.775 106.296 120.415C104.471 118.608 103.331 116.105 103.328 113.35L103.304 103.105L113.546 103.012C116.303 102.988 118.815 104.098 120.643 105.907C122.017 107.267 122.997 109.022 123.403 110.985C123.533 111.627 123.606 112.289 123.606 112.968C123.614 115.723 122.492 118.244 120.673 120.082ZM55.5698 123.535C53.4741 123.297 51.5717 122.4 50.0779 121.061C51.6181 122.387 53.5271 123.287 55.5698 123.535ZM127.534 98.933C126.296 97.7115 124.896 96.6453 123.37 95.7845C120.462 94.1368 117.101 93.2093 113.526 93.2399L103.283 93.3322L103.674 80.0755L93.9047 80.162L93.5116 93.421L56.7414 93.7497C53.8629 93.7752 51.1277 94.4206 48.6552 95.5564L46.3428 96.8145C45.0405 97.635 43.8411 98.6015 42.7595 99.6937C39.1799 103.317 36.9632 108.284 36.9805 113.743C36.9869 119.1 39.1567 123.966 42.6408 127.506L42.6498 127.51C46.2276 130.956 51.1063 133.066 56.466 133.019C61.9189 132.97 66.8616 130.696 70.4435 127.076C71.5228 125.986 72.4755 124.775 73.2841 123.461C73.7421 122.714 74.1506 121.937 74.512 121.133C75.6214 118.648 76.2374 115.905 76.2292 113.028L75.9922 107.166L66.2226 107.252L66.4618 113.117C66.4654 115.872 65.3412 118.395 63.5219 120.228C63.1629 120.595 62.7745 120.934 62.3589 121.243C60.6987 122.484 58.6491 123.226 56.4409 123.247C53.7799 123.271 51.3487 122.235 49.5415 120.54L49.5369 120.536L49.5325 120.536L49.3491 120.356C47.5242 118.549 46.3847 116.05 46.379 113.298C46.8332 111.241 47.5392 109.346 48.6833 107.713C48.9858 107.296 49.3199 106.906 49.6833 106.539C51.5025 104.701 54.0034 103.544 56.7643 103.52L93.5345 103.191L93.558 113.44C93.5668 117.015 94.5323 120.37 96.2077 123.254C97.0924 124.773 98.1676 126.157 99.4039 127.381C102.372 130.314 106.263 132.318 110.599 132.9L113.615 132.871C119.014 132.823 123.92 130.592 127.492 127.032C131.014 123.419 133.19 118.486 133.178 113.085L133.169 110.055C132.535 105.727 130.496 101.865 127.534 98.933ZM49.0189 63.7595C47.6468 62.3973 46.6619 60.6429 46.2567 58.68C46.1263 58.0375 46.0533 57.3756 46.0531 56.6962C46.0472 53.9391 47.1738 51.4226 48.9863 49.5828C49.0233 49.5441 49.0669 49.503 49.1083 49.4642C49.1343 49.4324 49.1626 49.4028 49.1931 49.3753C51.0102 47.5399 53.5156 46.3877 56.2742 46.361C56.9534 46.3563 57.6161 46.4186 58.2579 46.5436C60.2277 46.9264 61.9916 47.8919 63.3637 49.2496C73.948 60.6559 58.878 73.7158 49.0189 63.7595ZM114.483 46.1796C116.423 46.4811 118.182 47.3468 119.584 48.6017C118.141 47.359 116.374 46.4957 114.483 46.1796ZM127.021 42.1567L127.012 42.1525C123.434 38.7065 118.555 36.5961 113.196 36.6475C107.743 36.6925 102.798 38.9685 99.218 42.5869C98.1387 43.6812 97.1861 44.892 96.3797 46.2033C95.9194 46.9482 95.5087 47.7273 95.1473 48.5316C94.0379 51.0165 93.4263 53.7591 93.4323 56.6339L93.6693 62.4968L103.439 62.4059L103.2 56.5453C103.194 53.7926 104.323 51.2694 106.14 49.434C106.496 49.0693 106.889 48.7303 107.303 48.424C108.963 47.1833 111.012 46.4361 113.221 46.4152C115.882 46.3911 118.313 47.4277 120.12 49.1224L120.125 49.1268L120.131 49.1288C120.19 49.1894 120.251 49.2477 120.312 49.3105C122.14 51.1157 123.277 53.6119 123.28 56.367C122.831 58.4236 122.12 60.3185 120.978 61.9495C120.678 62.3682 120.342 62.7568 119.978 63.1239C118.161 64.9638 115.656 66.1204 112.897 66.1427L76.127 66.4714L76.1036 56.2263C76.0948 52.6522 75.127 49.2945 73.4538 46.4085C72.5691 44.8934 71.4917 43.5079 70.2554 42.2842C67.2916 39.3502 63.3984 37.349 59.0673 36.767L56.0467 36.7918C50.6981 36.8407 45.8336 39.0279 42.2693 42.5305C42.2323 42.5648 42.1997 42.5989 42.1671 42.6331L42.0648 42.7357C38.6046 46.3376 36.473 51.2296 36.4859 56.5797L36.4903 59.5967C37.1222 63.9268 39.1657 67.7977 42.1273 70.7294C43.3635 71.9531 44.7653 73.0171 46.2919 73.8823C49.1969 75.5279 52.5604 76.4531 56.1358 76.4225L66.3781 76.3301L66.5075 89.6762L76.2748 89.5876L76.1477 76.2437L112.918 75.9149C115.799 75.8872 118.534 75.2462 121.004 74.1083L123.319 72.8524C124.623 72.0296 125.823 71.063 126.9 69.971C130.482 66.3503 132.698 61.3784 132.681 55.9196C132.675 50.5627 130.512 45.6982 127.021 42.1567Z" fill="#EE5B2E"/>
</svg>
